<svg id="visual" viewBox="0 0 900 600" width="900" height="600" xmlns="http://www.w3.org/2000/svg" xmlns:xlink="http://www.w3.org/1999/xlink" version="1.1"><path d="M0 559L21.5 557.5C43 556 86 553 128.8 550.5C171.7 548 214.3 546 257.2 540.5C300 535 343 526 385.8 527.8C428.7 529.7 471.3 542.3 514.2 549.2C557 556 600 557 642.8 558.5C685.7 560 728.3 562 771.2 554.3C814 546.7 857 529.3 878.5 520.7L900 512L900 601L878.5 601C857 601 814 601 771.2 601C728.3 601 685.7 601 642.8 601C600 601 557 601 514.2 601C471.3 601 428.7 601 385.8 601C343 601 300 601 257.2 601C214.3 601 171.7 601 128.8 601C86 601 43 601 21.5 601L0 601Z" fill="#1A1A1A" stroke-linecap="round" stroke-linejoin="miter"></path></svg>